<svg width="56" height="56" viewBox="0 0 56 56" fill="none" xmlns="http://www.w3.org/2000/svg">
<path fill-rule="evenodd" clip-rule="evenodd" d="M28 0.5C12.8125 0.5 0.5 12.8125 0.5 28C0.5 43.1875 12.8125 55.5 28 55.5C43.1875 55.5 55.5 43.1875 55.5 28C55.5 12.8125 43.1875 0.5 28 0.5ZM37.2675 22.2675C37.7229 21.796 37.9749 21.1645 37.9692 20.509C37.9635 19.8535 37.7006 19.2265 37.237 18.763C36.7735 18.2994 36.1465 18.0365 35.491 18.0308C34.8355 18.0251 34.204 18.2771 33.7325 18.7325L28 24.465L22.2675 18.7325C22.0369 18.4937 21.761 18.3033 21.456 18.1722C21.151 18.0412 20.8229 17.9723 20.491 17.9694C20.1591 17.9665 19.8299 18.0297 19.5226 18.1554C19.2154 18.2811 18.9362 18.4668 18.7015 18.7015C18.4668 18.9362 18.2811 19.2154 18.1554 19.5226C18.0297 19.8299 17.9665 20.1591 17.9694 20.491C17.9723 20.8229 18.0412 21.151 18.1722 21.456C18.3033 21.761 18.4937 22.0369 18.7325 22.2675L24.465 28L18.7325 33.7325C18.4937 33.9631 18.3033 34.239 18.1722 34.544C18.0412 34.849 17.9723 35.1771 17.9694 35.509C17.9665 35.8409 18.0297 36.1701 18.1554 36.4774C18.2811 36.7846 18.4668 37.0638 18.7015 37.2985C18.9362 37.5332 19.2154 37.7189 19.5226 37.8446C19.8299 37.9703 20.1591 38.0335 20.491 38.0306C20.8229 38.0277 21.151 37.9588 21.456 37.8278C21.761 37.6967 22.0369 37.5063 22.2675 37.2675L28 31.535L33.7325 37.2675C34.204 37.7229 34.8355 37.9749 35.491 37.9692C36.1465 37.9635 36.7735 37.7006 37.237 37.237C37.7006 36.7735 37.9635 36.1465 37.9692 35.491C37.9749 34.8355 37.7229 34.204 37.2675 33.7325L31.535 28L37.2675 22.2675Z" fill="white"/>
</svg>
