<svg width="120" height="120" viewBox="0 0 120 120" fill="none" xmlns="http://www.w3.org/2000/svg">
<path d="M73.3333 13.3333V8.73329C73.3422 8.47061 73.2993 8.20875 73.2069 7.96269C73.1145 7.71662 72.9746 7.49118 72.795 7.29924C72.6155 7.1073 72.3998 6.95264 72.1605 6.84409C71.9211 6.73554 71.6627 6.67524 71.4 6.66663H48.6C48.3373 6.67524 48.0789 6.73554 47.8395 6.84409C47.6002 6.95264 47.3845 7.1073 47.205 7.29924C47.0254 7.49118 46.8855 7.71662 46.7931 7.96269C46.7007 8.20875 46.6578 8.47061 46.6667 8.73329V13.3333H33.3333C32.434 13.4077 31.5946 13.8141 30.9784 14.4734C30.3623 15.1327 30.0135 15.9977 30 16.9V110.233C30.0592 111.076 30.4363 111.865 31.0551 112.441C31.6739 113.016 32.4883 113.335 33.3333 113.333H86.6667C87.5171 113.335 88.336 113.011 88.9557 112.429C89.5754 111.846 89.949 111.049 90 110.2V16.8666C89.9784 15.9701 89.626 15.1133 89.0106 14.461C88.3952 13.8088 87.5604 13.4071 86.6667 13.3333H73.3333ZM67.5333 84.8C68.0063 85.7503 68.0824 86.8496 67.7448 87.8561C67.4072 88.8625 66.6837 89.6937 65.7333 90.1666C64.783 90.6396 63.6837 90.7157 62.6772 90.3781C61.6708 90.0405 60.8396 89.317 60.3667 88.3666L42.1667 51.8666L62.1667 55.2L54.5333 41.8666C54.2707 41.4114 54.1003 40.9089 54.0319 40.3877C53.9634 39.8666 53.9983 39.3372 54.1345 38.8295C54.2707 38.3219 54.5055 37.8461 54.8256 37.4292C55.1457 37.0123 55.5448 36.6626 56 36.4C56.4552 36.1373 56.9578 35.9669 57.4789 35.8985C58 35.83 58.5295 35.8649 59.0371 36.0011C59.5447 36.1373 60.0206 36.3721 60.4374 36.6922C60.8543 37.0123 61.204 37.4114 61.4667 37.8666L77.5667 65.7666L56.3333 62.3333L67.5333 84.8Z" fill="white"/>
</svg>
