<svg width="60" height="108" viewBox="0 0 60 108" fill="none" xmlns="http://www.w3.org/2000/svg">
<path d="M43.3333 7.33329V2.73329C43.3422 2.47061 43.2993 2.20875 43.2069 1.96269C43.1145 1.71662 42.9746 1.49118 42.795 1.29924C42.6155 1.1073 42.3998 0.952636 42.1605 0.844087C41.9211 0.735539 41.6627 0.675236 41.4 0.666626H18.6C18.3373 0.675236 18.0789 0.735539 17.8395 0.844087C17.6002 0.952636 17.3845 1.1073 17.205 1.29924C17.0254 1.49118 16.8855 1.71662 16.7931 1.96269C16.7007 2.20875 16.6578 2.47061 16.6667 2.73329V7.33329H3.33333C2.43402 7.4077 1.59457 7.81411 0.97841 8.4734C0.362253 9.13268 0.0134846 9.99767 0 10.9V104.233C0.0591529 105.076 0.436291 105.865 1.05512 106.441C1.67394 107.016 2.48826 107.335 3.33333 107.333H56.6667C57.5171 107.335 58.336 107.011 58.9557 106.429C59.5754 105.846 59.949 105.049 60 104.2V10.8666C59.9784 9.97014 59.626 9.11333 59.0106 8.46104C58.3952 7.80875 57.5604 7.40707 56.6667 7.33329H43.3333ZM37.5333 78.8C38.0063 79.7503 38.0824 80.8496 37.7448 81.8561C37.4072 82.8625 36.6837 83.6936 35.7333 84.1666C34.783 84.6396 33.6837 84.7157 32.6772 84.3781C31.6708 84.0405 30.8396 83.317 30.3667 82.3666L12.1667 45.8666L32.1667 49.2L24.5333 35.8666C24.2707 35.4114 24.1003 34.9089 24.0319 34.3877C23.9634 33.8666 23.9983 33.3372 24.1345 32.8295C24.2707 32.3219 24.5055 31.8461 24.8256 31.4292C25.1457 31.0123 25.5448 30.6626 26 30.4C26.4552 30.1373 26.9578 29.9669 27.4789 29.8985C28 29.83 28.5295 29.8649 29.0371 30.0011C29.5447 30.1373 30.0206 30.3721 30.4374 30.6922C30.8543 31.0123 31.204 31.4114 31.4667 31.8666L47.5667 59.7666L26.3333 56.3333L37.5333 78.8Z" fill="white"/>
</svg>
