<svg width="120" height="95" viewBox="0 0 120 95" fill="none" xmlns="http://www.w3.org/2000/svg">
<g clip-path="url(#clip0_72_16)">
<path d="M60 94.0077C59.1936 94.0077 57.3186 92.3566 54.375 89.0546C51.4315 85.7525 49.9597 83.6522 49.9597 82.7537C49.9597 81.3161 51.2198 80.1031 53.7399 79.1147C56.2601 78.1263 58.3468 77.6321 60 77.6321C61.6532 77.6321 63.7399 78.1263 66.2601 79.1147C68.7803 80.1031 70.0403 81.3161 70.0403 82.7537C70.0403 83.6522 68.5686 85.7525 65.625 89.0546C62.6815 92.3566 60.8065 94.0077 60 94.0077ZM76.3307 75.7452C76.25 75.7452 75.4436 75.1837 73.9113 74.0605C72.3791 72.9374 70.3327 71.8142 67.7722 70.6911C65.2117 69.5679 62.621 69.0063 60 69.0063C57.3791 69.0063 54.7883 69.5679 52.2278 70.6911C49.6674 71.8142 47.6311 72.9374 46.119 74.0605C44.6069 75.1837 43.7903 75.7452 43.6694 75.7452C42.9436 75.7452 41.0585 74.0605 38.0141 70.6911C34.9698 67.3216 33.4476 65.2326 33.4476 64.4239C33.4476 63.8399 33.6492 63.3232 34.0524 62.8739C37.1976 59.4146 41.1492 56.6966 45.9073 54.7199C50.6653 52.7431 55.3629 51.7548 60 51.7548C64.6371 51.7548 69.3347 52.7431 74.0928 54.7199C78.8508 56.6966 82.8024 59.4146 85.9476 62.8739C86.3508 63.3232 86.5524 63.8399 86.5524 64.4239C86.5524 65.2326 85.0303 67.3216 81.9859 70.6911C78.9416 74.0605 77.0565 75.7452 76.3307 75.7452ZM92.8428 57.4154C92.3992 57.4154 91.9355 57.2357 91.4516 56.8763C85.9678 52.1591 80.8871 48.6886 76.2097 46.4647C71.5323 44.2409 66.1291 43.129 60 43.129C56.5726 43.129 53.1351 43.6232 49.6875 44.6115C46.2399 45.5999 43.2359 46.7904 40.6754 48.1831C38.1149 49.5758 35.8266 50.9686 33.8105 52.3613C31.7944 53.754 30.2016 54.9445 29.0323 55.9329C27.8629 56.9213 27.2379 57.4154 27.1573 57.4154C26.4718 57.4154 24.617 55.7307 21.5928 52.3613C18.5686 48.9918 17.0565 46.9028 17.0565 46.0941C17.0565 45.555 17.2581 45.0608 17.6613 44.6115C22.9839 38.6813 29.4355 34.0764 37.0162 30.7968C44.5968 27.5172 52.2581 25.8774 60 25.8774C67.742 25.8774 75.4032 27.5172 82.9839 30.7968C90.5645 34.0764 97.0162 38.6813 102.339 44.6115C102.742 45.0608 102.944 45.555 102.944 46.0941C102.944 46.9028 101.431 48.9918 98.4073 52.3613C95.3831 55.7307 93.5283 57.4154 92.8428 57.4154ZM109.234 39.153C108.79 39.153 108.347 38.9508 107.903 38.5465C100.686 31.4931 93.1956 26.1806 85.4335 22.609C77.6714 19.0374 69.1936 17.2516 60 17.2516C50.8065 17.2516 42.3287 19.0374 34.5666 22.609C26.8045 26.1806 19.3145 31.4931 12.0968 38.5465C11.6532 38.9508 11.2097 39.153 10.7661 39.153C10.0807 39.153 8.21575 37.4683 5.17139 34.0988C2.12704 30.7294 0.604858 28.6403 0.604858 27.8317C0.604858 27.2476 0.806471 26.731 1.2097 26.2817C8.75002 17.9255 17.7218 11.4561 28.125 6.87368C38.5282 2.29123 49.1532 0 60 0C70.8468 0 81.4718 2.29123 91.875 6.87368C102.278 11.4561 111.25 17.9255 118.79 26.2817C119.194 26.731 119.395 27.2476 119.395 27.8317C119.395 28.6403 117.873 30.7294 114.829 34.0988C111.784 37.4683 109.919 39.153 109.234 39.153Z" fill="white"/>
</g>
<defs>
<clipPath id="clip0_72_16">
<rect width="120" height="94.8837" fill="white"/>
</clipPath>
</defs>
</svg>
