<svg width="100" height="100" viewBox="0 0 100 100" fill="none" xmlns="http://www.w3.org/2000/svg">
<circle cx="50" cy="50" r="44.4444" fill="white"/>
<path d="M50.5977 3.44824C41.4997 3.44824 32.6061 6.14609 25.0414 11.2006C17.4768 16.2552 11.5808 23.4394 8.09922 31.8448C4.61759 40.2502 3.70663 49.4993 5.48155 58.4224C7.25647 67.3455 11.6375 75.5419 18.0708 81.9751C24.504 88.4084 32.7004 92.7894 41.6235 94.5643C50.5466 96.3393 59.7957 95.4283 68.2011 91.9467C76.6065 88.4651 83.7907 82.5691 88.8453 75.0045C93.8998 67.4398 96.5977 58.5462 96.5977 49.4482C96.5977 37.2483 91.7512 25.548 83.1246 16.9213C74.4979 8.29466 62.7976 3.44824 50.5977 3.44824V3.44824ZM50.7702 54.2782C50.2845 54.282 49.8029 54.1896 49.3531 54.0064C48.9033 53.8232 48.4942 53.5527 48.1494 53.2106C47.8046 52.8685 47.531 52.4615 47.3443 52.0132C47.1575 51.5648 47.0614 51.0839 47.0614 50.5982V22.567C47.0614 21.5834 47.4522 20.64 48.1477 19.9445C48.8432 19.249 49.7865 18.8582 50.7702 18.8582C51.7538 18.8582 52.6971 19.249 53.3926 19.9445C54.0882 20.64 54.4789 21.5834 54.4789 22.567V50.5982C54.4789 51.0839 54.3828 51.5648 54.1961 52.0132C54.0093 52.4615 53.7357 52.8685 53.3909 53.2106C53.0462 53.5527 52.6371 53.8232 52.1873 54.0064C51.7375 54.1896 51.2558 54.282 50.7702 54.2782V54.2782ZM50.5977 77.5945C44.5423 77.6661 38.6226 75.8007 33.7024 72.2703C28.7821 68.74 25.1189 63.7296 23.2473 57.9704C21.3757 52.2111 21.3937 46.0044 23.2986 40.2561C25.2036 34.5078 28.8958 29.5187 33.8364 26.017C34.697 25.4036 35.7642 25.1533 36.8077 25.32C37.8513 25.4868 38.7874 26.0572 39.4139 26.9082C39.7198 27.3285 39.9394 27.8051 40.0602 28.3107C40.181 28.8162 40.2006 29.3407 40.1177 29.8538C40.0349 30.367 39.8513 30.8586 39.5775 31.3005C39.3038 31.7423 38.9453 32.1256 38.5227 32.4282C35.6808 34.5153 33.421 37.2954 31.9585 40.5037C30.496 43.7119 29.8796 47.2413 30.1682 50.7554C30.4568 54.2694 31.6406 57.6509 33.6069 60.5776C35.5731 63.5043 38.2563 65.8786 41.4005 67.4741C44.5447 69.0696 48.0452 69.8331 51.5682 69.6919C55.0913 69.5507 58.5194 68.5094 61.5258 66.6674C64.5323 64.8253 67.0168 62.2439 68.7425 59.1692C70.4682 56.0946 71.3775 52.6291 71.3839 49.1032C71.3742 45.8546 70.5861 42.6556 69.0854 39.7743C67.5847 36.893 65.4153 34.4134 62.7589 32.5432C61.941 31.8977 61.4121 30.9544 61.2882 29.9198C61.1642 28.8852 61.4553 27.8437 62.0977 27.0232C62.7328 26.1813 63.6729 25.6222 64.716 25.4663C65.759 25.3103 66.8216 25.57 67.6752 26.1895C72.5642 29.7313 76.1976 34.7388 78.0482 40.4853C79.8988 46.2318 79.8704 52.4185 77.967 58.1478C76.0637 63.8771 72.3844 68.8509 67.463 72.3477C62.5417 75.8444 56.6342 77.6823 50.5977 77.5945Z" fill="#0159B4"/>
</svg>
